<?xml version="1.0" encoding="UTF-8" standalone="no"?>
<svg
   xmlns:svg="http://www.w3.org/2000/svg"
   xmlns="http://www.w3.org/2000/svg"
 >

  <path
     d="M 15.484031,7.5718735 H 13.885349 C 13.714629,4.5431667 11.281093,2.1096124 8.2523799,1.9389289 V 0.34027632 C 8.2523799,0.15234189 8.1000404,0 7.9120963,0 7.724213,0 7.5718735,0.15234189 7.5718735,0.34027632 V 1.9389654 C 4.5431545,2.1096428 2.1095698,4.5431972 1.9388924,7.5718735 H 0.34027571 C 0.15237537,7.5718735 0,7.724213 0,7.9121571 0,8.1001013 0.15237537,8.2524408 0.34027571,8.2524408 H 1.9389228 C 2.1096063,11.281154 4.5431545,13.714751 7.5718735,13.88541 v 1.598621 c 0,0.187944 0.1524003,0.340283 0.3402836,0.340283 0.1878833,0 0.3402837,-0.152339 0.3402837,-0.340283 V 13.88541 C 11.281154,13.71469 13.71469,11.281154 13.885349,8.2524408 h 1.598682 c 0.187883,0 0.340283,-0.1523395 0.340283,-0.3402837 0,-0.1879441 -0.1524,-0.3402836 -0.340283,-0.3402836 z m -2.280588,0 H 11.918387 C 11.754544,5.6256898 10.198588,4.0697398 8.2524408,3.9058607 V 2.6208412 C 10.905691,2.7897231 13.034549,4.9185925 13.203443,7.5718735 Z M 7.5718735,8.2524408 V 9.2475467 C 7.0849716,9.1233867 6.7008668,8.7393427 6.5767676,8.2524408 Z M 6.5767676,7.5718735 C 6.7008668,7.0849716 7.0849716,6.7008668 7.5718735,6.5767676 v 0.9951059 z m 1.6756123,0.6805673 h 0.9951059 c -0.12416,0.4869019 -0.5082039,0.870885 -0.9951059,0.9951059 z m 0,-0.6805673 V 6.5767676 c 0.486902,0.1240992 0.8709459,0.508204 0.9951059,0.9951059 z M 7.5718735,5.8822567 C 6.7089615,6.0264649 6.0264162,6.7089615 5.882208,7.5718735 H 4.5890268 C 4.7486515,6.001146 6.0011034,4.7487246 7.5718127,4.5891059 v 1.2931508 z m -1.689629,2.3701841 c 0.1442082,0.8628511 0.826717,1.545366 1.689629,1.6896107 V 11.235202 C 6.0011704,11.075498 4.7487185,9.8231257 4.5890938,8.2524408 Z M 8.2523799,9.9420515 C 9.1152919,9.7978676 9.7978068,9.1153528 9.9419906,8.2524408 H 11.235141 C 11.075498,9.8231257 9.8230648,11.075559 8.2523799,11.235202 Z M 9.9419906,7.5718735 C 9.7978068,6.7089615 9.1152919,6.0264649 8.2523799,5.8822567 V 4.5891059 C 9.8230648,4.7487611 11.075498,6.0011825 11.235141,7.5718735 Z M 7.5718735,2.6208412 v 1.285056 C 5.6256411,4.0697763 4.0697276,5.6256898 3.9058181,7.5718735 H 2.6208047 C 2.7897171,4.9185925 4.9185803,2.7897231 7.5718735,2.6208412 Z M 2.6208047,8.2524408 h 1.2850134 c 0.1638791,1.9461472 1.719823,3.5021032 3.6660554,3.6660062 v 1.284996 C 4.9185803,13.034609 2.7897171,10.905752 2.6208047,8.2524408 Z M 8.2523799,13.203504 V 11.918447 C 10.198588,11.754605 11.754483,10.198649 11.918387,8.2524408 h 1.284995 C 13.034549,10.905752 10.905691,13.034609 8.2523799,13.203504 Z"
     style="fill:#707070;fill-opacity:0.5;stroke:none;stroke-width:0.6086275"
   />
</svg>
