<?xml version="1.0" encoding="UTF-8" standalone="no"?>
<svg
   xmlns:svg="http://www.w3.org/2000/svg"
   xmlns="http://www.w3.org/2000/svg"
   viewBox="0 0 20 20">
  <g
     transform="translate(-144.03384,-194.03264)">
    <path
       style="fill:#707070;fill-opacity:0.5;stroke:none;stroke-width:0.19426979"
       d="m 158.09173,211.20181 c -2.47621,1.42964 -5.52701,1.42964 -8.00322,0 l 2.63175,-4.55833 c 0.84767,0.48941 1.89205,0.48941 2.73972,0 z m 0,-13.86199 c 2.47621,1.42963 4.00161,4.07171 4.00161,6.931 h -5.26349 c 0,-0.97881 -0.5222,-1.88327 -1.36987,-2.37267 z m -2.18638,6.931 c 0,1.00252 -0.8127,1.81522 -1.81522,1.81522 -1.00253,0 -1.81523,-0.8127 -1.81523,-1.81522 0,-1.00253 0.8127,-1.81523 1.81523,-1.81523 1.00252,0 1.81522,0.8127 1.81522,1.81523 z m -9.81844,0 c 0,-2.85929 1.5254,-5.50137 4.0016,-6.931 l 2.63175,4.55833 c -0.84767,0.4894 -1.36985,1.39386 -1.36985,2.37267 z m 8.00322,-9.76183 c -5.39131,0 -9.76183,4.37052 -9.76183,9.76183 0,5.3913 4.37052,9.76182 9.76183,9.76182 5.3913,0 9.76182,-4.37052 9.76182,-9.76182 0,-5.39131 -4.37052,-9.76183 -9.76182,-9.76183 z" />
  </g>
</svg>
