<svg viewBox="0 0 11 19" xmlns="http://www.w3.org/2000/svg">
  <path
    d="M10.9999 17.281L10.9999 10.8345C10.9999 10.7157 10.9046 10.6196 10.7867 10.6196L6.94787 10.6196C6.82993 10.6196 6.73462 10.7157 6.73462 10.8345L6.73462 17.281C6.73462 17.3998 6.82995 17.4958 6.94787 17.4958L6.94787 17.7107C6.82993 17.7107 6.73462 17.8068 6.73462 17.9256L6.73462 18.7851C6.73462 18.9039 6.82995 19 6.94787 19L10.7867 19C10.9046 19 10.9999 18.9039 10.9999 18.7851L10.9999 17.9256C10.9999 17.8068 10.9046 17.7107 10.7867 17.7107L10.7867 17.4959C10.9046 17.4959 10.9999 17.3998 10.9999 17.281Z"
    style="stroke:none;fill:#707070;fill-opacity:0.5"
  />
  <path
    d="M7.16103 10.19L10.5733 10.19C10.6912 10.19 10.7865 10.0939 10.7865 9.9751L10.7865 9.76023C10.7865 8.34761 10.1167 6.99814 8.99511 6.15021C8.91919 6.09283 8.81511 6.09283 8.73919 6.15021C7.61763 6.99814 6.94775 8.34758 6.94775 9.76023L6.94775 9.9751C6.94778 10.0939 7.04309 10.19 7.16103 10.19Z"
    style="stroke:none;fill:#707070;fill-opacity:0.5"
  />
  <path
    d="M4.2653 16.4667L4.2653 6.96668C4.2653 6.79154 4.16997 6.65002 4.05205 6.65002L0.213255 6.65002C0.0953081 6.65002 0 6.79158 2.07367e-10 6.96668L6.4287e-09 16.4667C6.54339e-09 16.6419 0.0953335 16.7834 0.213255 16.7834L0.213255 17.1C0.0953081 17.1 6.93614e-09 17.2416 7.0508e-09 17.4167L7.88032e-09 18.6834C7.99501e-09 18.8585 0.0953335 19 0.213255 19L4.05205 19C4.17 19 4.2653 18.8585 4.2653 18.6834L4.2653 17.4167C4.2653 17.2416 4.16997 17.1001 4.05205 17.1001L4.05205 16.7834C4.16997 16.7834 4.2653 16.6419 4.2653 16.4667Z"
    style="stroke:none;fill:#707070;fill-opacity:0.5"
  />
  <path
    d="M0.426416 6.01675L3.83867 6.01675C3.95662 6.01675 4.05193 5.87519 4.05193 5.7001L4.05193 5.38345C4.05193 3.30169 3.38205 1.313 2.26049 0.0634114C2.18457 -0.0211371 2.08049 -0.0211371 2.00457 0.0634114C0.883009 1.313 0.213135 3.30165 0.213135 5.38345L0.213135 5.7001C0.21316 5.87519 0.308468 6.01675 0.426416 6.01675Z"
    style="stroke:none;fill:#707070;fill-opacity:0.5"
  />
</svg>
