<svg
   xmlns="http://www.w3.org/2000/svg"
   xmlns:svg="http://www.w3.org/2000/svg"
   viewBox="0 0 19.608173 15.956006"
 >
  <path
    d="m 3.9804213,15.432542 a 1.0464595,1.0464595 0 0 0 1.4295115,0.383331 l 2.1436723,-1.23765 c 0.178964,-0.103325 0.3845161,-0.151306 0.590733,-0.138064 l 3.6284459,0.234906 a 1.0460467,1.0460467 0 0 0 0.590732,-0.138064 l 1.280825,-0.739485 -0.524171,-0.907892 1.519671,-0.877383 0.524172,0.907892 3.921046,-2.263817 A 1.0464595,1.0464595 0 0 0 19.468041,9.2270058 L 14.442847,0.52311487 A 1.0464595,1.0464595 0 0 0 13.013538,0.14013265 L 0.52303944,7.3515258 A 1.046666,1.046666 0 0 0 0.14005721,8.780835 Z m 0.818263,-0.289915 -0.710858,-1.231242 2.6227609,-1.514251 0.7108571,1.231242 z M 3.7323978,13.295765 3.0215403,12.064524 5.6443007,10.550273 6.3551582,11.781513 Z M 2.5955501,11.326687 1.8846926,10.095445 4.5074529,8.5811942 5.2183106,9.8124348 Z M 1.5292641,9.4798247 0.81860831,8.248933 3.4413683,6.7346814 4.1520241,7.9655736 Z"
    style="opacity:0.4;fill:#707070;"
  />
 </svg>