<?xml version="1.0" encoding="UTF-8" standalone="no"?>
<svg
    xmlns:svg="http://www.w3.org/2000/svg"
    xmlns="http://www.w3.org/2000/svg"
    viewBox="0 0 7 10"
>
  <path
     d="m 1.8226568,7.3990059 h 2.0094969 c 0.037059,0 0.066977,-0.02995 0.066977,-0.066977 v -1.205711 c 0,-0.037059 -0.02995,-0.066977 -0.066977,-0.066977 H 1.8226568 c -0.037046,0 -0.06698,0.02995 -0.06698,0.066977 h -0.06698 c 0,-0.037059 -0.02994,-0.066977 -0.06698,-0.066977 h -0.267933 c -0.037046,0 -0.06698,0.02995 -0.06698,0.066977 v 1.205711 c 0,0.037027 0.029943,0.066977 0.06698,0.066977 h 0.2679168 c 0.037046,0 0.06698,-0.02995 0.06698,-0.066977 h 0.06698 c 9.6e-6,0.037027 0.02995,0.066977 0.066996,0.066977 z"
     style="fill:#707070;fill-opacity:0.5;stroke:none;stroke-width:0.32169452"
  />
  <path
     d="m 4.0330519,6.1933271 v 1.0717252 c 0,0.037059 0.02995,0.066977 0.067009,0.066977 h 0.066977 c 0.4403354,0 0.8609832,-0.2103882 1.1253196,-0.5626437 0.017886,-0.02387 0.017886,-0.056554 0,-0.080391 C 5.0280209,6.3367385 4.6073731,6.1263181 4.1670377,6.1263181 h -0.066977 c -0.037059,3.22e-5 -0.067009,0.02995 -0.067009,0.067009 z"
     style="fill:#707070;fill-opacity:0.5;stroke:none;stroke-width:0.32169452"
  />
  <path
     d="m 1.8226568,5.49525 h 2.0094969 c 0.037059,0 0.066977,-0.029918 0.066977,-0.066977 V 4.2225943 c 0,-0.037059 -0.02995,-0.067009 -0.066977,-0.067009 H 1.8226568 c -0.037046,0 -0.06698,0.02995 -0.06698,0.067009 h -0.06698 c 0,-0.037059 -0.02994,-0.067009 -0.06698,-0.067009 h -0.267933 c -0.037046,0 -0.06698,0.02995 -0.06698,0.067009 v 1.2056789 c 0,0.037059 0.029943,0.066977 0.06698,0.066977 h 0.2679168 c 0.037046,0 0.06698,-0.02995 0.06698,-0.066977 h 0.06698 c 9.6e-6,0.037027 0.02995,0.066977 0.066996,0.066977 z"
     style="fill:#707070;fill-opacity:0.5;stroke:none;stroke-width:0.32169452"
  />
  <path
     d="m 4.0330519,4.2895711 v 1.0717575 c 0,0.037027 0.02995,0.066977 0.067009,0.066977 h 0.066977 c 0.4403354,0 0.8609832,-0.2104204 1.1253196,-0.5626759 0.017886,-0.023838 0.017886,-0.056522 0,-0.080392 C 5.0280209,4.4329825 4.6073731,4.2225943 4.1670377,4.2225943 h -0.066977 c -0.037059,0 -0.067009,0.02995 -0.067009,0.066977 z"
     style="fill:#707070;fill-opacity:0.5;stroke:none;stroke-width:0.32169452"
  />
  <path
     d="m 1.8226568,3.5915262 h 2.0094969 c 0.037059,0 0.066977,-0.02995 0.066977,-0.066977 V 2.3188416 c 0,-0.037046 -0.02995,-0.06698 -0.066977,-0.06698 H 1.8226568 c -0.037046,0 -0.06698,0.029943 -0.06698,0.06698 h -0.06698 c 0,-0.037046 -0.02994,-0.06698 -0.06698,-0.06698 h -0.267933 c -0.037046,0 -0.06698,0.029943 -0.06698,0.06698 v 1.2057078 c 0,0.037027 0.029943,0.066977 0.06698,0.066977 h 0.2679168 c 0.037046,0 0.06698,-0.02995 0.06698,-0.066977 h 0.06698 c 9.6e-6,0.037027 0.02995,0.066977 0.066996,0.066977 z"
     style="fill:#707070;fill-opacity:0.5;stroke:none;stroke-width:0.32169452"
  />
  <path
     d="m 4.0330519,2.3858441 v 1.0717285 c 0,0.037059 0.02995,0.066977 0.067009,0.066977 h 0.066977 c 0.4403354,0 0.8609832,-0.2103882 1.1253196,-0.5626566 0.017886,-0.023844 0.017886,-0.056531 0,-0.080379 C 5.0280209,2.5292523 4.6073731,2.3188545 4.1670377,2.3188545 h -0.066977 c -0.037059,9.6e-6 -0.067009,0.029943 -0.067009,0.06699 z"
     style="fill:#707070;fill-opacity:0.5;stroke:none;stroke-width:0.32169452"
  />
  <path
     d="M 0,0 V 9.3291408 H 7.0772793 V 7.559821 H 6.1982741 L 6.1121957,0.96508354 H 4.0211814 L 3.2973687,0 Z M 0.32169451,0.32169451 H 3.1365215 l 0.627053,0.83628009 0.09676,0.1288034 h 0.1608473 1.773718 l 0.08168,6.2774412 0.0044,0.3172963 H 6.1982741 6.7555847 V 9.0074463 H 0.32169451 Z"
     style="fill:#707070;fill-opacity:0.5;stroke:none;stroke-width:0.32169452"
  />
</svg>
