<?xml version="1.0" encoding="UTF-8" standalone="no"?>
<svg
   xmlns:svg="http://www.w3.org/2000/svg"
   xmlns="http://www.w3.org/2000/svg"
   viewBox="0 0 7 10"
 >
  <path
     d="m 1.79387,8.0467094 h 2.0094969 c 0.037059,0 0.066977,-0.02995 0.066977,-0.066977 v -1.205711 c 0,-0.037059 -0.02995,-0.066977 -0.066977,-0.066977 H 1.79387 c -0.037046,0 -0.06698,0.02995 -0.06698,0.066977 H 1.65991 c 0,-0.037059 -0.02994,-0.066977 -0.06698,-0.066977 H 1.324997 c -0.037046,0 -0.06698,0.02995 -0.06698,0.066977 v 1.205711 c 0,0.037027 0.029943,0.066977 0.06698,0.066977 h 0.2679168 c 0.037046,0 0.06698,-0.02995 0.06698,-0.066977 h 0.06698 c 9.6e-6,0.037027 0.02995,0.066977 0.066996,0.066977 z"
     style="fill:#707070;fill-opacity:0.5;stroke:none;stroke-width:0.32169452"
  />
  <path
     d="m 4.0042651,6.8410306 v 1.0717252 c 0,0.037059 0.02995,0.066977 0.067009,0.066977 h 0.066977 c 0.4403354,0 0.8609832,-0.2103882 1.1253196,-0.5626437 0.017886,-0.02387 0.017886,-0.056554 0,-0.080391 C 4.9992341,6.984442 4.5785863,6.7740216 4.1382509,6.7740216 h -0.066977 c -0.037059,3.22e-5 -0.067009,0.02995 -0.067009,0.067009 z"
     style="fill:#707070;fill-opacity:0.5;stroke:none;stroke-width:0.32169452"
  />
  <path
     d="m 1.79387,6.1429535 h 2.0094969 c 0.037059,0 0.066977,-0.029918 0.066977,-0.066977 V 4.8702978 c 0,-0.037059 -0.02995,-0.067009 -0.066977,-0.067009 H 1.79387 c -0.037046,0 -0.06698,0.02995 -0.06698,0.067009 H 1.65991 c 0,-0.037059 -0.02994,-0.067009 -0.06698,-0.067009 H 1.324997 c -0.037046,0 -0.06698,0.02995 -0.06698,0.067009 v 1.2056789 c 0,0.037059 0.029943,0.066977 0.06698,0.066977 h 0.2679168 c 0.037046,0 0.06698,-0.02995 0.06698,-0.066977 h 0.06698 c 9.6e-6,0.037027 0.02995,0.066977 0.066996,0.066977 z"
     style="fill:#707070;fill-opacity:0.5;stroke:none;stroke-width:0.32169452"
  />
  <path
     d="m 4.0042651,4.9372746 v 1.0717575 c 0,0.037027 0.02995,0.066977 0.067009,0.066977 h 0.066977 c 0.4403354,0 0.8609832,-0.2104204 1.1253196,-0.5626759 0.017886,-0.023838 0.017886,-0.056522 0,-0.080392 C 4.9992341,5.080686 4.5785863,4.8702978 4.1382509,4.8702978 h -0.066977 c -0.037059,0 -0.067009,0.02995 -0.067009,0.066977 z"
     style="fill:#707070;fill-opacity:0.5;stroke:none;stroke-width:0.32169452"
  />
  <path
     d="m 1.79387,4.2392297 h 2.0094969 c 0.037059,0 0.066977,-0.02995 0.066977,-0.066977 V 2.9665451 c 0,-0.037046 -0.02995,-0.06698 -0.066977,-0.06698 H 1.79387 c -0.037046,0 -0.06698,0.029943 -0.06698,0.06698 H 1.65991 c 0,-0.037046 -0.02994,-0.06698 -0.06698,-0.06698 H 1.324997 c -0.037046,0 -0.06698,0.029943 -0.06698,0.06698 v 1.2057078 c 0,0.037027 0.029943,0.066977 0.06698,0.066977 h 0.2679168 c 0.037046,0 0.06698,-0.02995 0.06698,-0.066977 h 0.06698 c 9.6e-6,0.037027 0.02995,0.066977 0.066996,0.066977 z"
     style="fill:#707070;fill-opacity:0.5;stroke:none;stroke-width:0.32169452"
  />
  <path
     d="m 4.0042651,3.0335476 v 1.0717285 c 0,0.037059 0.02995,0.066977 0.067009,0.066977 h 0.066977 c 0.4403354,0 0.8609832,-0.2103882 1.1253196,-0.5626566 0.017886,-0.023844 0.017886,-0.056531 0,-0.080379 C 4.9992341,3.1769558 4.5785863,2.966558 4.1382509,2.966558 h -0.066977 c -0.037059,9.6e-6 -0.067009,0.029943 -0.067009,0.06699 z"
     style="fill:#707070;fill-opacity:0.5;stroke:none;stroke-width:0.32169452"
  />
  <path
     d="M -0.02878682,0.64770352 V 9.9768443 H 7.0484925 V 8.2075245 H 6.1694873 L 6.0834089,1.6127871 H 3.9923946 L 3.2685819,0.64770352 Z M 0.29290769,0.96939803 H 3.1077347 l 0.627053,0.83628007 0.09676,0.1288034 H 3.992395 5.766113 l 0.08168,6.2774412 0.0044,0.3172963 H 6.1694873 6.7267979 V 9.6551498 H 0.29290769 Z"
     style="fill:#707070;fill-opacity:0.5;stroke:none;stroke-width:0.32169452"
  />
</svg>
