<?xml version="1.0" encoding="UTF-8" standalone="no"?>
<svg
   xmlns="http://www.w3.org/2000/svg"
   viewBox="0 0 16 16"
 >
  <path
     d="m 14.084926,5.1553161 -0.377857,0.377857 1.068903,1.0689023 -0.691046,0.6910454 -1.603353,-1.6033535 -0.377857,0.377857 1.603353,1.6033535 -0.691045,0.6910454 -1.068902,-1.0689024 -0.377857,0.377857 1.068902,1.0689024 L 11.947122,9.4309256 10.343768,7.827572 9.9659112,8.205429 11.569265,9.8087825 10.878219,10.499828 9.809317,9.4309256 9.43146,9.8087825 10.500362,10.877685 9.809317,11.56873 8.2059634,9.9653767 7.8281065,10.343234 9.43146,11.946587 8.7404146,12.637633 7.6715123,11.56873 7.2936553,11.946587 8.3625576,13.01549 7.6715123,13.706535 6.0681587,12.103181 5.6903017,12.481038 7.2936553,14.084392 6.6026099,14.775437 5.5337075,13.706535 5.1558505,14.084392 6.2247529,15.153294 5.3445118,16.033535 0,10.689024 10.689024,0 16.033535,5.3445118 15.153829,6.2242185 Z"
     style="fill:#707070;fill-opacity:0.5;stroke:none;stroke-width:0.59383464"
   />
</svg>
