<?xml version="1.0" encoding="UTF-8" standalone="no"?>
<svg
   xmlns="http://www.w3.org/2000/svg"
   viewBox="0 0 16 16">
  <path
     d="m 10.896415,0.13881601 c -2.6003653,0 -4.7108412,2.21440989 -4.7108412,4.94288919 0,0.6326886 0.150754,1.225835 0.3580316,1.7992067 l -5.483443,5.6942041 c -0.73489417,0.771119 -0.73489417,2.076016 0,2.847135 0.3768711,0.395421 0.8667962,0.553575 1.3567285,0.553575 0.4899251,0 0.9798574,-0.177951 1.3567279,-0.553575 L 9.200559,9.6687368 c 0.527588,0.2174709 1.092898,0.3756252 1.714716,0.3756252 2.600365,0 4.710863,-2.2144461 4.710863,-4.9428894 0,-0.3163442 0,-0.6326885 -0.0565,-0.9292581 L 13.741822,6.0900548 H 9.973117 V 2.1357406 L 11.800924,0.21790244 C 11.518233,0.15858758 11.216755,0.15858758 10.915275,0.15858758 Z M 2.4168909,12.990333 c 0.5276172,0 0.9421725,0.434943 0.9421725,0.98859 0,0.553576 -0.4145553,0.98859 -0.9421725,0.98859 -0.5276171,0 -0.9421725,-0.435014 -0.9421725,-0.98859 0,-0.553647 0.4145554,-0.98859 0.9421725,-0.98859 z"
     style="fill:#707070;fill-opacity:0.5;stroke:none;stroke-width:0.71986407"
   />
</svg>
