<?xml version="1.0" encoding="UTF-8" standalone="no"?>
<svg
   xmlns:svg="http://www.w3.org/2000/svg"
   xmlns="http://www.w3.org/2000/svg"
   viewBox="0 0 13 16"
 >
  <path
    style="clip-rule:evenodd;fill:#707070;fill-opacity:0.5;fill-rule:evenodd;stroke:none;stroke-width:0.12309028"
    d="M 1.3596857,15.125334 H 11.586027 c 0.660995,0 1.504163,-0.850553 1.347838,-1.493085 L 11.217987,6.5804066 C 10.846254,5.0516253 10.326813,4.2146114 8.6306288,4.2146114 H 7.3246409 C 8.1050333,3.877344 8.6515542,3.1006443 8.6515542,2.1971616 8.6515542,0.98349135 7.6680628,0 6.4543926,0 5.2407224,0 4.257231,0.98349135 4.257231,2.1971616 c 0,0.9047135 0.5465209,1.6814133 1.3269133,2.0174498 H 4.4332501 c -1.6900296,0 -2.4002605,0.9502569 -2.748606,2.4076459 L 0.01061617,13.632249 c -0.15263194,0.642532 0.68807469,1.493085 1.34906953,1.493085 z M 4.5846511,8.8194189 H 5.131172 V 9.5222643 L 5.7047728,8.8194189 H 6.4334672 L 5.7860123,9.5173408 6.4630089,10.678082 H 5.7897051 L 5.4155106,9.9149229 5.131172,10.22511 v 0.452972 H 4.5846511 Z M 7.4132659,10.006009 V 9.619506 H 8.260127 v 0.79024 c -0.1624791,0.115704 -0.3052639,0.195713 -0.429585,0.237563 -0.1243212,0.04185 -0.2720295,0.06278 -0.4431251,0.06278 -0.2104843,0 -0.3815798,-0.03816 -0.5145174,-0.113242 C 6.739962,10.521757 6.6377971,10.409746 6.5651738,10.260806 6.4925506,10.111867 6.4556235,9.9420023 6.4556235,9.7487507 c 0,-0.2030987 0.04062,-0.3791183 0.1193976,-0.5292884 0.080008,-0.1501702 0.1969444,-0.2634132 0.3508073,-0.3409601 0.1206284,-0.060314 0.2818768,-0.089856 0.4849757,-0.089856 0.1957136,0 0.3421909,0.018463 0.4394323,0.055391 0.097241,0.036928 0.17725,0.09478 0.241257,0.1735573 0.064007,0.078777 0.1120121,0.17725 0.1440156,0.2978786 L 7.7086826,9.4151759 C 7.6865264,9.3450144 7.6495993,9.2908547 7.5979013,9.2539275 7.5462034,9.2157696 7.4797347,9.197306 7.3984951,9.197306 c -0.1193976,0 -0.215408,0.043082 -0.2868004,0.1317067 -0.071392,0.087394 -0.1070886,0.2264864 -0.1070886,0.4148145 0,0.2006369 0.035697,0.3446518 0.1083195,0.4308158 0.071392,0.08616 0.1723264,0.129245 0.3015712,0.129245 0.061545,0 0.1193976,-0.0086 0.1747882,-0.02708 0.055391,-0.01846 0.1193976,-0.05047 0.19079,-0.09478 V 10.008471 H 7.4132659 Z M 6.4728561,6.537325 c 1.7540366,0 3.1757291,1.4216928 3.1757291,3.1757291 0,1.7540369 -1.4216925,3.1757299 -3.1757291,3.1757299 -1.7540366,0 -3.1757293,-1.421693 -3.1757293,-3.1757299 0,-1.7540363 1.4229236,-3.1757291 3.1757293,-3.1757291 z M 6.4543926,1.2813699 c 0.505901,0 0.9157917,0.4098907 0.9157917,0.9157917 0,0.505901 -0.4098907,0.9157917 -0.9157917,0.9157917 -0.5059011,0 -0.9157917,-0.4098907 -0.9157917,-0.9157917 0.00123,-0.505901 0.4111215,-0.9157917 0.9157917,-0.9157917 z"
  />
</svg>