<?xml version="1.0" encoding="UTF-8" standalone="no"?>
<svg
   xmlns:svg="http://www.w3.org/2000/svg"
   xmlns="http://www.w3.org/2000/svg"
   viewBox="0 0 13 16"
>
  <path
     style="clip-rule:evenodd;fill:#707070;fill-opacity:0.5;fill-rule:evenodd;stroke:none;stroke-width:0.12309028"
     d="M 1.4057446,16.01992 H 11.632086 c 0.660995,0 1.504163,-0.850553 1.347838,-1.493085 L 11.264046,7.474993 C 10.892313,5.9462113 10.372872,5.1091974 8.6766877,5.1091974 H 7.3706998 C 8.1510922,4.77193 8.6976131,3.9952303 8.6976131,3.0917476 c 0,-1.2136702 -0.9834914,-2.1971616 -2.1971616,-2.1971616 -1.2136702,0 -2.1971616,0.9834914 -2.1971616,2.1971616 0,0.9047135 0.5465209,1.6814133 1.3269133,2.0174498 H 4.479309 c -1.6900296,0 -2.4002605,0.9502569 -2.748606,2.4076456 L 0.05667509,14.526835 C -0.09595685,15.169367 0.74474978,16.01992 1.4057446,16.01992 Z M 4.63071,9.714005 H 5.1772309 V 10.41685 L 5.7508317,9.714005 h 0.7286944 l -0.6474549,0.697922 0.6769966,1.160741 H 5.835764 L 5.4615695,10.809509 5.1772309,11.119696 v 0.452972 H 4.63071 Z m 2.8286148,1.18659 v -0.386503 h 0.8468611 v 0.79024 c -0.1624791,0.115704 -0.3052639,0.195713 -0.429585,0.237563 -0.1243212,0.04185 -0.2720295,0.06278 -0.4431251,0.06278 -0.2104843,0 -0.3815798,-0.03816 -0.5145174,-0.113242 C 6.7860209,11.416343 6.683856,11.304332 6.6112327,11.155392 6.5386095,11.006453 6.5016824,10.836588 6.5016824,10.643337 c 0,-0.203099 0.04062,-0.379119 0.1193976,-0.529289 0.080008,-0.15017 0.1969444,-0.263413 0.3508073,-0.34096 0.1206284,-0.06031 0.2818768,-0.08986 0.4849757,-0.08986 0.1957136,0 0.3421909,0.01846 0.4394323,0.05539 0.097241,0.03693 0.17725,0.09478 0.241257,0.173558 0.064007,0.07878 0.1120121,0.17725 0.1440156,0.297878 l -0.5268264,0.0997 c -0.022156,-0.07016 -0.059083,-0.124321 -0.1107813,-0.161248 -0.051698,-0.03816 -0.1181666,-0.05662 -0.1994062,-0.05662 -0.1193976,0 -0.215408,0.04308 -0.2868004,0.131707 -0.071392,0.08739 -0.1070886,0.226486 -0.1070886,0.414814 0,0.200637 0.035697,0.344652 0.1083195,0.430816 0.071392,0.08616 0.1723264,0.129245 0.3015712,0.129245 0.061545,0 0.1193976,-0.0086 0.1747882,-0.02708 0.055391,-0.01846 0.1193976,-0.05047 0.19079,-0.09478 V 10.903057 H 7.4593248 Z M 6.518915,7.431911 c 1.7540366,0 3.1757291,1.421693 3.1757291,3.175729 0,1.754037 -1.4216925,3.17573 -3.1757291,3.17573 -1.7540366,0 -3.1757293,-1.421693 -3.1757293,-3.17573 0,-1.754036 1.4229236,-3.175729 3.1757293,-3.175729 z M 6.5004515,2.1759559 c 0.505901,0 0.9157917,0.4098907 0.9157917,0.9157917 0,0.505901 -0.4098907,0.9157917 -0.9157917,0.9157917 -0.5059011,0 -0.9157917,-0.4098907 -0.9157917,-0.9157917 0.00123,-0.505901 0.4111215,-0.9157917 0.9157917,-0.9157917 z"
  />
</svg>
